<svg height="511pt" viewBox="0 0 511.99942 511" width="511pt" xmlns="http://www.w3.org/2000/svg" xmlns:xlink="http://www.w3.org/1999/xlink"><linearGradient id="linear0" gradientUnits="userSpaceOnUse" x1="255.999340768" x2="255.999340768" y1=".499710341" y2="511.977395195"><stop offset="0" stop-color="#2af598"/><stop offset="1" stop-color="#009efd"/></linearGradient><path d="m417.296875 228.269531-29.144531-99.902343-63.101563-34.242188 17.519531-35.671875-103.039062-55.335937-19.53125 34.007812-67.503906-36.625-100.144532 27.820312 33.242188 98.847657 65.269531 35.417969-143.296875 260.265624c-7.777344 14.019532-9.632812 30.226563-5.222656 45.636719 4.414062 15.414063 14.5625 28.183594 28.578125 35.964844 9.199219 5.101563 19.167969 7.523437 29.011719 7.523437 21.121094 0 41.644531-11.164062 52.621094-30.941406l143.800781-261.210937 64.453125 34.96875zm-313.566406-172.699219 43.894531-12.191406 206.789062 112.203125 13.09375 44.882813-41.773437 11.480468-207.230469-112.441406zm-26.195313 406.109376c-2.589844 4.671874-6.847656 8.054687-11.984375 9.527343-5.140625 1.46875-10.542969.851563-15.214843-1.742187-4.671876-2.59375-8.054688-6.847656-9.523438-11.984375-1.472656-5.140625-.855469-10.542969 1.769531-15.273438l143.449219-260.539062 35.15625 19.074219zm372.316406-240.949219 50.011719 26.75-18.867187 35.28125-50.015625-26.75zm-37.703124 56.589843 24.648437 51.082032-36.035156 17.386718-24.648438-51.082031zm43.371093-84.839843-3.671875-39.84375 56.480469-5.207031 3.671875 39.84375zm0 0" fill="url(#linear0)"/></svg>