<svg enable-background="new 0 0 140 140" height="512" viewBox="0 0 140 140" width="512" xmlns="http://www.w3.org/2000/svg"><circle cx="70" cy="70" fill="#de594e" r="64"/><path d="m61.1467285 27.6076584c-17.0099487 0-30.7899761 13.7700195-30.7899761 30.7800293 0 8.0100098 3.0599957 15.3100586 8.0700054 20.7800293.6199951.6799316 1.2600098 1.3200684 1.9400024 1.9399414l49.673645 49.6735764c20.6251221-6.7971115 36.6166992-23.7829514 41.9966431-45.0117111l-47.4503173-47.3317872c-5.6499634-6.6201172-14.0499878-10.8300781-23.4400025-10.8300781z" opacity=".1"/><path d="m109.865242 106.0565643c-4.3157959 4.3063126-11.4231033 3.9156647-15.2244492-.8574753l-11.0515289-13.7476806-4.8112793-5.9735718-3.0677338-3.8108826 9.7653809-9.7653732 3.8108826 3.0677261 5.9735718 4.8112793 13.7477417 11.0515289c4.7730789 3.8013459 5.1637268 10.9085999.8574142 15.2244492z" fill="#feda6f"/><path d="m61.1401558 48.0494576c-10.6899071 0-19.3557892 10.3435211-19.3557892 10.3435211s8.6658821 10.3435936 19.3557892 10.3435936 19.3557472-10.3435936 19.3557472-10.3435936-8.6658401-10.3435211-19.3557472-10.3435211z" fill="#ededed"/><ellipse cx="61.14" cy="58.393" fill="#4da0dc" rx="8.5" ry="8.5" transform="matrix(.099 -.995 .995 .099 -2.993 113.482)"/><g fill="#ededed"><path d="m48.107376 46.410374h1.228979v3.138057h-1.228979z" transform="matrix(.867 -.498 .498 .867 -17.425 30.647)"/><path d="m52.904285 44.289902h1.229041v3.138316h-1.229041z" transform="matrix(.952 -.306 .306 .952 -11.457 18.557)"/><path d="m57.956627 43.229759h1.229506v3.137966h-1.229506z" transform="matrix(.995 -.103 .103 .995 -4.305 6.275)"/><path d="m62.140175 44.184002h3.137966v1.229475h-3.137966z" transform="matrix(.103 -.995 .995 .103 12.588 103.556)"/><path d="m67.192505 45.244438h3.137847v1.228949h-3.137847z" transform="matrix(.306 -.952 .952 .306 4.08 97.312)"/><path d="m71.989647 47.36491h3.138057v1.228979h-3.138057z" transform="matrix(.498 -.867 .867 .498 -4.682 87.871)"/><path d="m47.152836 68.192062h3.138057v1.228979h-3.138057z" transform="matrix(.498 -.867 .867 .498 -35.209 76.788)"/><path d="m51.94965 70.312378h3.138316v1.229041h-3.138316z" transform="matrix(.306 -.952 .952 .306 -30.386 100.166)"/><path d="m57.002396 71.372459h3.137966v1.229506h-3.137966z" transform="matrix(.103 -.995 .995 .103 -19.065 122.834)"/><path d="m63.094421 70.418236h1.229475v3.137966h-1.229475z" transform="matrix(.995 -.103 .103 .995 -7.081 6.95)"/><path d="m68.146957 69.358124h1.228949v3.137847h-1.228949z" transform="matrix(.952 -.306 .306 .952 -18.385 24.406)"/><path d="m72.944183 67.237526h1.228979v3.138057h-1.228979z" transform="matrix(.867 -.498 .498 .867 -24.499 45.787)"/></g><path d="m61.1403046 53.756218c-2.5608177 0-4.6367416 2.0760841-4.6367416 4.6366882 0 2.5608177 2.0759239 4.6369019 4.6367416 4.6369019 2.5607643 0 4.6366882-2.0760841 4.6366882-4.6369019 0-2.5606041-2.0759239-4.6366882-4.6366882-4.6366882z" fill="#2f4859"/><path d="m58.6501083 53.756218c-.8386269 0-1.5184708.6800575-1.5184708 1.5186806s.6798439 1.5184708 1.5184708 1.5184708c.838623 0 1.5184708-.6798477 1.5184708-1.5184708s-.6798477-1.5186806-1.5184708-1.5186806z" fill="#ededed"/><path d="m61.1309433 56.8013382c-.5269814 0-.9541855.4273376-.9541855.9543152 0 .5269814.4272041.9541855.9541855.9541855.5269775 0 .9541855-.4272041.9541855-.9541855 0-.5269776-.427208-.9543152-.9541855-.9543152z" fill="#ededed"/><path d="m61.1448746 27.6058903c-17.0060234 0-30.7918549 13.7762928-30.7918549 30.7824345 0 17.005909 13.7858315 30.7917442 30.7918549 30.7917442 17.0060883 0 30.7823792-13.7858353 30.7823792-30.7917442-.0000001-17.0061417-13.776291-30.7824345-30.7823792-30.7824345zm0 55.5531521c-13.6810417 0-24.7707176-11.0897903-24.7707176-24.7707176 0-13.68116 11.0896759-24.7707176 24.7707176-24.7707176 13.6811066 0 24.7707214 11.0895576 24.7707214 24.7707176 0 13.6809272-11.0896149 24.7707176-24.7707214 24.7707176z" fill="#3a556a"/></svg>